HIERARCHY
ROOT Hips
{
  OFFSET 3.13124 94.3669 -3.18751
  CHANNELS  6 Xposition Yposition Zposition Zrotation Xrotation Yrotation
  JOINT LeftUpLeg
  {
    OFFSET 8.64259 1.95398 -2.38835
    CHANNELS 3 Zrotation Xrotation Yrotation
    JOINT LeftLeg
    {
      OFFSET 43.7702 0 0
      CHANNELS 3 Zrotation Xrotation Yrotation
      JOINT LeftFoot
      {
        OFFSET 40.6238 0 0
        CHANNELS 3 Zrotation Xrotation Yrotation
        JOINT LeftToeBase
        {
          OFFSET 12.7242 0 0
          CHANNELS 3 Zrotation Xrotation Yrotation
          End Site
          {
            OFFSET 0 0 0
          }
        }
      }
    }
  }
  JOINT RightUpLeg
  {
    OFFSET -8.2249 1.95398 -2.59336
    CHANNELS 3 Zrotation Xrotation Yrotation
    JOINT RightLeg
    {
      OFFSET 43.5653 0 0
      CHANNELS 3 Zrotation Xrotation Yrotation
      JOINT RightFoot
      {
        OFFSET 40.6238 0 0
        CHANNELS 3 Zrotation Xrotation Yrotation
        JOINT RightToeBase
        {
          OFFSET 12.7242 0 0
          CHANNELS 3 Zrotation Xrotation Yrotation
          End Site
          {
            OFFSET 0 0 0
          }
        }
      }
    }
  }
  JOINT Spine
  {
    OFFSET 0.165834 0.87714 6.61349
    CHANNELS 3 Zrotation Xrotation Yrotation
    JOINT Spine1
    {
      OFFSET 7.38962 1.71661e-005 0
      CHANNELS 3 Zrotation Xrotation Yrotation
      JOINT Spine2
      {
        OFFSET 11.9445 1.14441e-005 0
        CHANNELS 3 Zrotation Xrotation Yrotation
        JOINT Spine3
        {
          OFFSET 14.7254 4.19617e-005 0
          CHANNELS 3 Zrotation Xrotation Yrotation
          JOINT Spine4
          {
            OFFSET 10.9679 0 0
            CHANNELS 3 Zrotation Xrotation Yrotation
            JOINT RightShoulder
            {
              OFFSET 2.46616 -1.6653 3.69651
              CHANNELS 3 Zrotation Xrotation Yrotation
              JOINT RightArm
              {
                OFFSET 13.0012 0 0
                CHANNELS 3 Zrotation Xrotation Yrotation
                JOINT RightForeArm
                {
                  OFFSET 28.7848 1.52588e-005 0
                  CHANNELS 3 Zrotation Xrotation Yrotation
                  JOINT RightHand
                  {
                    OFFSET 26.5688 1.52588e-005 0
                    CHANNELS 3 Zrotation Xrotation Yrotation
                    End Site
                    {
                      OFFSET 0 0 0
                    }
                  }
                }
              }
            }
            JOINT LeftShoulder
            {
              OFFSET 2.38034 -1.29275 -3.75231
              CHANNELS 3 Zrotation Xrotation Yrotation
              JOINT LeftArm
              {
                OFFSET 16.3182 6.10352e-005 0
                CHANNELS 3 Zrotation Xrotation Yrotation
                JOINT LeftForeArm
                {
                  OFFSET 27.0901 0 0
                  CHANNELS 3 Zrotation Xrotation Yrotation
                  JOINT LeftHand
                  {
                    OFFSET 24.5451 1.52588e-005 0
                    CHANNELS 3 Zrotation Xrotation Yrotation
                    End Site
                    {
                      OFFSET 0 0 0
                    }
                  }
                }
              }
            }
            JOINT Neck
            {
              OFFSET 5.0226 -0.0266342 0
              CHANNELS 3 Zrotation Xrotation Yrotation
              JOINT Head
              {
                OFFSET 6.69363 2.86102e-005 0
                CHANNELS 3 Zrotation Xrotation Yrotation
                End Site
                {
                  OFFSET 0 0 0
                }
              }
            }
          }
        }
      }
    }
  }
}
MOTION
Frames:	12
Frame Time:	0.0333333
4.86518 96.2439 27.0521 89.2433 -4.65915 94.5767 179.386 26.9903 90.4447 -45.289 -73.5778 -13.7499 51.164 -2.53696 -2.21441 28.7808 3.88115e-006 -9.74356e-007 -176.81 5.5534 95.5619 -18.5227 57.6041 6.19867 61.4245 2.28397 1.32579 28.7808 1.25261e-005 1.77577e-005 0.338744 7.46139 -91.0553 11.9452 0.158601 -1.33024 0.273616 0.0998758 -1.33594 -22.2568 0.551173 -1.22104 -2.24418 0.551158 -1.22106 96.72 7.92474 -111.295 9.35822 23.7191 -35.7152 -84.8603 -87.9203 -83.8275 16.4761 0.208283 -3.54972 -113.597 -30.5086 32.6992 -30.2541 -5.22441 -50.1519 1.79053 -31.3454 -2.76495 36.0333 2.00749 1.64779 20.728 -11.2881 0.651497 -17.8494 -8.06554 -22.4282 
5.78733 96.5847 25.8891 90.2327 1.66642 94.1189 179.077 23.9662 88.1461 -45.4049 -76.867 -18.6609 51.1785 -0.874164 -0.978281 28.7808 3.88115e-006 -9.74356e-007 -178.614 11.6049 93.653 -33.6905 54.8763 5.3561 54.5535 3.43159 2.5149 28.7808 1.25261e-005 1.77577e-005 0.208529 7.44064 -90.7864 11.989 0.0317274 -1.48329 0.317237 -0.0332836 -1.48312 -22.2116 0.473957 -1.40602 -2.19899 0.473941 -1.40603 97.4188 11.385 -112.478 10.8262 23.6696 -44.0663 -28.8801 -85.1999 -27.9404 14.1278 -0.297424 -7.15078 -114.209 -30.3779 31.6053 -30.5095 -4.35124 -53.4621 1.65568 -43.7958 -2.58711 38.3143 1.23863 -0.769865 23.0355 -13.0614 3.57306 -20.6326 -9.79585 -25.1025 
6.68325 96.2084 24.7416 91.3522 7.36711 93.5053 178.961 21.8239 86.2112 -40.5871 -70.4924 -12.4925 53.3811 -6.51006 -4.76853 28.7808 3.88115e-006 -9.74356e-007 -179.627 17.3819 91.5347 -45.6439 44.5673 3.20096 46.1253 -4.87912 -3.37485 28.7808 1.25261e-005 1.77577e-005 0.184115 7.4429 -90.4349 11.9885 0.0694001 -1.59298 0.316588 -0.000560494 -1.59435 -22.2115 0.541945 -1.49944 -2.19885 0.541938 -1.49946 98.653 15.4977 -111.736 13.0223 22.9498 -54.5482 -13.5758 -78.3469 -12.8052 13.4589 -0.663218 -10.3893 -115.207 -31.1434 30.6985 -29.4222 -4.88858 -56.0401 1.54563 -56.8988 -2.39999 43.8375 -0.200557 -4.6403 25.6986 -14.7049 5.80292 -23.5153 -11.3004 -26.8196 
7.55346 95.5368 23.9864 92.4091 12.728 91.4814 178.854 20.6018 83.5417 -40.2485 -64.6539 -9.31435 54.3567 -12.0056 -8.40035 28.7808 3.88115e-006 -9.74356e-007 -179.857 21.503 88.3704 -54.0217 28.0857 1.32177 47.4022 -10.1151 -7.41833 28.7808 1.25261e-005 1.77577e-005 0.171252 7.44588 -90.0327 11.9838 0.152114 -1.28818 0.312218 0.0953005 -1.29363 -22.2187 0.532223 -1.18292 -2.20606 0.532216 -1.18294 100.118 20.6431 -111.343 14.4749 22.26 -62.2362 -8.95516 -69.2163 -8.40335 6.84693 -0.574128 -13.6028 -115.871 -32.5699 30.7809 -29.187 -5.10637 -56.2198 1.52589 -60.1081 -2.35018 43.8745 -2.20195 -9.31893 27.5765 -15.8455 9.07339 -25.8981 -12.4866 -30.0071 
8.35415 94.9872 23.5614 93.1297 18.4773 88.7507 178.675 20.3903 80.2041 -41.261 -63.0773 -8.55212 53.8734 -14.2752 -10.058 28.7808 3.88115e-006 -9.74356e-007 -179.513 23.9574 84.7313 -56.459 11.644 0.124902 51.5253 -15.8996 -11.1973 28.7808 1.25261e-005 1.77577e-005 0.169561 7.42149 -89.6946 12.0351 0.306388 -0.704991 0.364011 0.275087 -0.717785 -22.1703 0.503931 -0.580363 -2.15764 0.50393 -0.580375 101.621 25.9865 -111.833 13.9449 23.534 -68.5824 -7.31347 -61.6006 -6.94861 6.83724 -0.770162 -16.8824 -116.956 -35.4968 31.3306 -27.3819 -6.81399 -57.117 1.50508 -64.3742 -2.28065 49.1163 -1.62921 -7.56328 28.5041 -17.0694 12.3171 -27.496 -13.792 -33.6058 
9.40221 94.87 23.2958 93.7621 25.2257 87.3851 178.483 19.4069 78.4872 -40.4149 -60.0699 -7.24103 53.7385 -15.9589 -11.2839 28.7808 3.88115e-006 -9.74356e-007 -179.665 24.7116 83.5089 -52.5551 1.2349 -0.409387 52.8117 -19.6283 -13.6514 28.7808 1.25261e-005 1.77577e-005 0.15778 7.34858 -89.5833 12.1804 0.392045 -0.249705 0.509504 0.379905 -0.266821 -22.026 0.451308 -0.119586 -2.01338 0.451316 -0.119596 102.204 27.8231 -109.513 12.5533 26.4023 -76.0144 -7.22002 -61.0127 -6.86982 1.95089 -0.503253 -26.0728 -118.476 -38.3264 31.1569 -23.113 -11.2874 -56.2237 1.54415 -77.1683 -1.97699 52.5366 0.0164711 -4.15913 26.7243 -19.5015 11.8031 -26.7971 -15.9642 -33.8965 
10.77 95.0534 23.115 95.3444 33.5709 86.6286 178.366 16.7297 78.2824 -38.053 -51.0022 -4.6583 57.3725 -7.77924 -5.19228 28.7808 3.88115e-006 -9.74356e-007 179.617 23.4036 84.0263 -44.7454 -13.536 -1.08551 54.2797 -18.8402 -12.7122 28.7808 1.25261e-005 1.77577e-005 0.167306 7.30163 -89.8209 12.2725 0.381627 -0.137701 0.601566 0.375529 -0.15427 -21.934 0.4034 -0.0172448 -1.92138 0.40339 -0.0172584 102.458 28.8743 -104.447 12.6355 28.3045 -86.6591 -6.78053 -57.9309 -6.50771 3.5575 -0.73482 -24.4028 -119.9 -40.7802 30.8689 -21.1247 -13.4121 -52.8714 1.56822 -78.4412 -1.92694 56.8723 -1.92123 -7.60608 23.7733 -21.7184 13.109 -26.2996 -18.0158 -36.1699 
12.2293 95.4089 22.915 96.909 43.4036 85.4531 178.034 13.5272 78.8114 -35.2184 -40.7397 -2.95792 59.4238 -5.42332 -3.5031 28.7808 3.88115e-006 -9.74356e-007 178.903 20.7602 85.4102 -34.0875 -23.7055 -1.50726 57.517 -15.7427 -9.95652 28.7808 1.25261e-005 1.77577e-005 0.121358 7.20052 -90.0181 12.4727 0.270527 0.125529 0.801784 0.275782 0.113491 -21.7335 0.220286 0.201031 -1.72085 0.220276 0.201016 102.122 27.0457 -98.6325 11.7176 31.3292 -91.8449 -7.6415 -63.503 -7.22946 -19.7442 4.10697 -29.3021 -119.406 -41.2744 31.8608 -17.9348 -16.3556 -47.7645 2.76853 -87.3863 -0.546461 61.5949 -1.89212 -7.25805 19.8948 -24.9475 9.64891 -23.7412 -21.0087 -34.2176 
13.9454 96.0525 22.5332 98.8581 53.3221 84.13 178.094 10.7702 80.3683 -33.4389 -29.7571 -1.77274 60.0409 -2.04552 -1.3875 28.7808 3.88115e-006 -9.74356e-007 178.731 18.059 87.4046 -24.5537 -34.9019 -2.12493 53.2738 -6.86971 -4.35619 28.7808 1.25261e-005 1.77577e-005 0.171631 7.06436 -90.2879 12.7436 0.296779 -0.0137873 1.07267 0.295913 -0.0268517 -21.4628 0.287274 0.076069 -1.45012 0.287286 0.0760671 102.197 27.386 -94.6491 10.246 35.211 -95.1698 -6.94397 -59.1412 -6.64006 -26.0879 7.55809 -37.8878 -119.523 -43.263 32.9817 -18.2568 -16.06 -43.1333 1.63681 -80.6724 -1.81344 60.3826 -7.00393 -15.6886 18.4667 -26.544 11.701 -23.9305 -22.6076 -36.6287 
15.7953 97.2335 21.8012 102.26 63.4526 81.2491 178.269 8.21033 82.4973 -31.735 -19.1436 -0.93853 57.9045 -0.33346 -0.443796 28.7808 3.88115e-006 -9.74356e-007 178.98 11.2274 89.1023 -9.40998 -40.5156 -2.37499 47.0713 2.35721 2.58227 28.7808 1.25261e-005 1.77577e-005 0.131024 6.98412 -90.3291 12.9039 0.239402 0.208134 1.23294 0.24762 0.19745 -21.3021 0.164193 0.269983 -1.28952 0.164175 0.269963 101.95 23.0163 -88.9638 8.90706 40.6626 -101.12 -6.00522 -50.9085 -5.91307 -24.7272 9.19448 -46.0529 -116.597 -44.546 37.7878 -15.561 -17.9829 -39.1027 1.75795 -82.8572 -1.64826 61.7299 -4.76745 -11.8356 17.0633 -27.9412 6.61717 -21.0577 -24.186 -31.9466 
17.4779 98.8206 20.6152 108.996 74.3674 74.0409 178.742 6.86303 84.0432 -30.3467 -9.10759 -0.323486 52.4815 -0.0962784 -0.453685 28.7808 3.88115e-006 -9.74356e-007 179.271 10.373 89.7317 -7.62704 -41.3721 -2.43724 37.221 4.37158 5.01132 28.7808 1.25261e-005 1.77577e-005 0.0767728 6.80628 -90.0305 13.2602 0.248836 0.5012 1.58923 0.272001 0.489627 -20.9452 0.0906343 0.55377 -0.932564 0.0906375 0.55375 102.134 19.2351 -83.8684 8.01005 45.3218 -105.157 -5.80602 -45.0543 -6.00053 -31.6296 13.9875 -52.8444 -114.156 -46.5247 42.3047 -13.5948 -19.1417 -35.126 1.65163 -81.0314 -1.7913 63.0164 -9.7697 -19.4084 16.2932 -27.9628 4.41693 -18.8607 -24.5086 -29.1613 
18.8975 100.523 19.1325 139.61 84.2313 42.6282 179.062 7.40944 85.2357 -30.4636 -2.81447 0.0436514 43.9612 -2.65808 -2.91603 28.7808 3.88115e-006 -9.74356e-007 179.346 9.06177 90.1308 -6.32537 -41.2773 -2.43377 22.7045 0.277951 1.95018 28.7808 1.25261e-005 1.77577e-005 0.106408 6.59324 -89.7755 13.6853 0.415613 0.824464 2.01414 0.451477 0.805352 -20.519 0.147962 0.911233 -0.506339 0.147965 0.911228 102.459 15.5482 -80.6079 18.0124 44.4008 -99.8548 -30.8593 -34.4146 -45.2409 -26.3264 8.87502 -42.9063 -111.074 -48.0821 47.418 -11.072 -20.4607 -31.306 1.54391 -77.1892 -1.97649 59.6108 -10.9572 -22.371 16.3025 -26.375 2.82159 -16.3419 -23.6473 -24.6558 
